<svg width="57" height="57" viewBox="0 0 57 57" fill="none" xmlns="http://www.w3.org/2000/svg">
<circle cx="28.5" cy="28.5" r="28.5" fill="#D4C157"/>
<path d="M19.4655 24.2559V24.2828C19.4655 27.0551 17.3571 29.3071 14.7552 29.3071C14.0554 29.3071 13.3914 29.1456 12.7903 28.8495C12.6886 28.8017 12.5899 28.7509 12.4942 28.697C12.4583 28.6731 12.4225 28.6492 12.3866 28.6252C10.9869 27.755 10.0359 26.14 10.0359 24.2828C10.0359 24.1153 10.0449 23.9508 10.0628 23.7893L18.3979 24.1392L19.4655 24.1841C19.4655 24.208 19.4655 24.2319 19.4655 24.2559Z" fill="#EE3D3D" stroke="#231F20" stroke-linejoin="round"/>
<path d="M28.8862 24.2558V24.2827C28.8862 27.0551 26.7778 29.3071 24.1759 29.3071C21.574 29.3071 19.4656 27.0551 19.4656 24.2827V24.2558C19.4656 24.2319 19.4656 24.208 19.4656 24.1841H28.8862C28.8862 24.208 28.8862 24.2319 28.8862 24.2558Z" fill="#EE3D3D" stroke="#231F20" stroke-linejoin="round"/>
<path d="M38.3068 24.2558V24.2827C38.3068 27.0551 36.1983 29.3071 33.5964 29.3071C30.9945 29.3071 28.8861 27.0551 28.8861 24.2827V24.2558C28.8861 24.2319 28.8861 24.208 28.8861 24.1841H38.3068C38.3068 24.208 38.3068 24.2319 38.3068 24.2558Z" fill="#EE3D3D" stroke="#231F20" stroke-linejoin="round"/>
<path d="M47.7275 24.2827C47.7275 26.1579 46.7675 27.7908 45.3409 28.6521C45.305 28.6761 45.2662 28.7 45.2243 28.7239C45.1286 28.7777 45.0299 28.8286 44.9282 28.8764C44.345 29.1546 43.699 29.3071 43.0172 29.3071C40.4153 29.3071 38.3068 27.0551 38.3068 24.2827V24.2558C38.3068 24.2319 38.3068 24.208 38.3068 24.184L39.2489 24.1392L47.7006 23.7444C47.7185 23.9239 47.7275 24.1033 47.7275 24.2827Z" fill="#EE3D3D" stroke="#231F20" stroke-linejoin="round"/>
<path d="M45.341 37.3909V47H12.3866V37.3909H45.341Z" fill="#A2CE66" stroke="#231F20"/>
<path d="M12.3866 28.6252V28.3651" stroke="#231F20" stroke-linejoin="round"/>
<path d="M45.3409 28.6522V28.2753" stroke="#231F20" stroke-linejoin="round"/>
<path d="M46.0408 24.1392H11.6868C10.7537 24.1392 10 23.9239 10 23.6547L11.5163 12.5473C11.5163 12.2781 11.9828 12 12.9159 12H44.8116C45.7357 12 46.0497 12.4127 46.0497 12.6819L47.7275 23.6547C47.7275 23.9239 46.9739 24.1392 46.0408 24.1392Z" fill="#EE3D3D" stroke="#231F20" stroke-linejoin="round"/>
<path d="M45.341 28.6522V37.391H12.3866V28.6253C12.4225 28.6492 12.4584 28.6731 12.4943 28.697C12.59 28.7509 12.6887 28.8017 12.7903 28.8496C13.3915 29.1456 14.0554 29.3071 14.7552 29.3071C17.3571 29.3071 19.4655 27.0551 19.4655 24.2828C19.4655 27.0551 21.574 29.3071 24.1759 29.3071C26.7778 29.3071 28.8862 27.0551 28.8862 24.2828C28.8862 27.0551 30.9946 29.3071 33.5965 29.3071C36.1984 29.3071 38.3069 27.0551 38.3069 24.2828C38.3069 27.0551 40.4153 29.3071 43.0172 29.3071C43.6991 29.3071 44.3451 29.1546 44.9282 28.8765C45.0299 28.8286 45.1286 28.7778 45.2243 28.7239C45.2662 28.7 45.3051 28.6761 45.341 28.6522Z" fill="#FEFEFE" stroke="#231F20" stroke-linejoin="round"/>
</svg>
