<svg width="57" height="57" viewBox="0 0 57 57" fill="none" xmlns="http://www.w3.org/2000/svg">
<circle cx="28.5" cy="28.5" r="28.5" fill="#D4A057"/>
<path d="M37.4086 19.2202C37.4086 22.8396 35.459 25.9832 32.6045 27.5317C31.3918 28.2034 30.0019 28.5765 28.5374 28.5765C26.9235 28.5765 25.4217 28.1287 24.1157 27.3358C21.4571 25.722 19.6661 22.6903 19.6661 19.2202C19.6661 18.7724 19.6941 18.3309 19.75 17.8955H37.3153C37.3775 18.3309 37.4086 18.7724 37.4086 19.2202Z" fill="#FEFEFE" stroke="#231F20"/>
<path d="M32.6045 27.5317V30.097C32.6045 33.5951 24.1157 33.5951 24.1157 30.097V27.3358C25.4217 28.1287 26.9236 28.5765 28.5374 28.5765C30.0019 28.5765 31.3825 28.2034 32.6045 27.5317Z" fill="#FEFEFE" stroke="#231F20"/>
<path d="M17.9683 31.5989V47.6716H13.416C12.1567 47.6716 11.1306 46.6455 11.1306 45.3862V40.4048C11.1306 40.2742 11.1213 40.1437 11.0933 40.0131C11.0311 39.6337 11 39.2481 11 38.8563C11 35.2742 13.6119 32.2985 17.0354 31.7295C17.2158 31.6984 17.4024 31.6766 17.5952 31.6642C17.7195 31.6517 17.8439 31.63 17.9683 31.5989Z" fill="#EE3D3D" stroke="#231F20" stroke-linejoin="round"/>
<path d="M38.7798 31.6362V47.6716H17.9683V31.5989L24.1157 29.9198V30.097C24.1157 33.5951 32.6045 33.5951 32.6045 30.097V30.041L38.1548 31.5522C38.3601 31.6082 38.5746 31.6362 38.7798 31.6362Z" fill="#A2CE66" stroke="#231F20"/>
<path d="M45.9999 38.8563C45.9999 39.2481 45.9688 39.6337 45.9067 40.013C45.888 40.1436 45.8787 40.2742 45.8787 40.4048V45.3862C45.8787 46.6455 44.8525 47.6716 43.5839 47.6716H38.7798V31.6362H38.7891C42.7723 31.6362 45.9999 34.8638 45.9999 38.8563Z" fill="#EE3D3D" stroke="#231F20" stroke-linejoin="round"/>
<path d="M42.6604 13.8004C42.2313 14.9011 41.6996 17.0466 41.0373 17.8955H15.8787C15.2257 17.0466 14.6847 14.9011 14.2649 13.8004H19.6287V10.6007C19.6287 8.6138 21.2425 7 23.2294 7H33.7705C35.7668 7 37.3712 8.6138 37.3712 10.6007V13.8004H42.6604Z" fill="#FEC631" stroke="#231F20" stroke-linejoin="round"/>
</svg>
