<svg width="57" height="57" viewBox="0 0 57 57" fill="none" xmlns="http://www.w3.org/2000/svg">
<circle cx="28.5" cy="28.5" r="28.5" fill="#FF6400"/>
<path d="M44.9782 30.089C44.9782 38.892 37.841 46.0215 29.0392 46.0215C20.2462 46.0215 13.1089 38.892 13.1089 30.089C13.1089 21.286 20.2462 14.1565 29.0392 14.1565C37.841 14.1565 44.9782 21.286 44.9782 30.089Z" fill="#FEC631" stroke="#231F20" stroke-linejoin="round"/>
<path d="M41.5186 13.4592L46.2332 30.272L42.939 31.1872L47 45.6554L43.7146 46.5793L33.6754 10.8009L35.3486 10.3302C38.5992 9.31919 40.4031 10.705 41.5186 13.4592Z" fill="#E6E7E6" stroke="#231F20" stroke-linejoin="round"/>
<path d="M20.2636 10.8619V22.82C20.2636 23.6742 19.5752 24.3627 18.7298 24.3627H17.3355V48H13.9281V24.3627H12.5425C11.6885 24.3627 11 23.6742 11 22.82V10.8619C11 10.8009 11.0523 10.7573 11.1133 10.7573H20.159C20.22 10.7573 20.2636 10.8009 20.2636 10.8619Z" fill="#E6E7E6" stroke="#231F20" stroke-linejoin="round"/>
<path d="M14.2244 10.7573V19.3075V10.7573Z" fill="#E6E7E6"/>
<path d="M14.2244 10.7573V19.3075" stroke="#231F20" stroke-linecap="round" stroke-linejoin="round"/>
<path d="M17.2222 10.7573V19.3075V10.7573Z" fill="#E6E7E6"/>
<path d="M17.2222 10.7573V19.3075" stroke="#231F20" stroke-linecap="round" stroke-linejoin="round"/>
</svg>
