<svg width="34" height="47" viewBox="0 0 34 47" fill="none" xmlns="http://www.w3.org/2000/svg">
<g id="servi&#195;&#167;os">
<g id="&#60;Group&#62;">
<g id="&#60;Group&#62;_2">
<path id="&#60;Path&#62;" d="M20.5075 0.987777C20.5971 1.64512 20.6569 2.26139 20.6867 2.83656C19.4318 3.78897 18.6811 4.99908 18.2665 6.42209C18.2441 5.59294 18.0984 4.81981 17.7959 4.11391C18.2553 3.01584 19.0172 1.94018 20.1713 0.875729C20.3058 0.752477 20.4738 0.797296 20.5075 0.987777Z" fill="#A1CE67"/>
<path id="&#60;Compound Path&#62;" fill-rule="evenodd" clip-rule="evenodd" d="M17.7175 10.6575L17.6167 6.4557C17.5943 5.70498 17.4598 5.06631 17.2133 4.48366L17.0565 4.11391L17.2133 3.74415C17.74 2.48921 18.5803 1.34633 19.7792 0.225852C20.0257 0.0017567 20.3507 -0.0654721 20.6308 0.0689851C20.8997 0.203442 21.0902 0.494766 21.1462 0.853319C21.247 1.5256 21.3031 2.18669 21.3367 2.79174L21.3591 3.27355L21.0341 3.52005C19.9697 4.3268 19.275 5.36884 18.8828 6.70221L17.7175 10.6575ZM18.5243 4.13632C18.5243 4.14379 18.5243 4.14752 18.5243 4.14752C18.9277 3.49764 19.4095 2.9262 20.0033 2.43319C19.9958 2.32114 19.9846 2.2091 19.9697 2.09705C19.3422 2.75813 18.8716 3.44162 18.5243 4.13632Z" fill="#231F20"/>
</g>
<g id="&#60;Group&#62;_3">
<path id="&#60;Path&#62;_2" d="M22.5916 2.13066C22.1098 6.94871 20.6643 9.15605 18.1209 10.2205C18.0312 10.2541 17.9528 10.2541 17.8968 10.2205C17.8407 10.1757 17.8071 10.1085 17.8071 10.0076C17.8071 9.94038 17.8071 9.87315 17.8071 9.80592C18.1209 8.59581 18.2889 7.46413 18.2665 6.43329V6.42208C18.6811 4.99908 19.4318 3.78896 20.6868 2.83656C21.1574 2.48921 21.6952 2.16427 22.3226 1.87295C22.4683 1.80572 22.614 1.91777 22.5916 2.13066Z" fill="#A1CE67"/>
<path id="&#60;Compound Path&#62;_2" fill-rule="evenodd" clip-rule="evenodd" d="M17.9976 11.0497C17.8631 11.0497 17.7287 11.0048 17.6054 10.9264C17.3253 10.7583 17.146 10.3998 17.1572 9.99641L17.1684 9.53701L17.2245 9.43617C17.4934 8.31569 17.6278 7.35208 17.6166 6.52293L17.583 6.37727L17.6054 6.29884V6.17558L17.6839 6.04113C18.1881 4.40523 19.0508 3.13909 20.3394 2.15307C20.8548 1.77211 21.4375 1.42476 22.0873 1.12223C22.3787 0.987775 22.7036 1.0438 22.9389 1.2791C23.163 1.50319 23.2862 1.86175 23.2414 2.2203C22.7484 7.12799 21.2806 9.7387 18.3225 10.9824C18.218 11.0272 18.1096 11.0497 17.9976 11.0497ZM18.9164 6.6798C18.9164 7.41931 18.8267 8.21485 18.6475 9.08882C20.4178 8.04678 21.3926 6.19799 21.8296 2.99343C21.5458 3.15777 21.2806 3.33331 21.0341 3.52005C20.0369 4.28198 19.3534 5.25679 18.95 6.47811L18.9724 6.60136L18.9164 6.6798Z" fill="#231F20"/>
</g>
<g id="&#60;Group&#62;_4">
<path id="&#60;Path&#62;_3" d="M17.796 4.11392C18.0985 4.81982 18.2442 5.59295 18.2666 6.4221V6.43331C17.964 7.44174 17.8408 8.57342 17.8072 9.80594C17.7848 9.88811 17.7624 9.97402 17.7399 10.0637C17.725 10.1384 17.6951 10.1906 17.6503 10.2205C17.6279 10.1981 17.6092 10.1608 17.5943 10.1085C17.5719 10.0263 17.5532 9.94414 17.5383 9.86197C17.5607 8.61824 17.4822 7.50897 17.2133 6.55656C16.8548 5.2344 16.1489 4.23717 14.9276 3.62091C14.9798 3.03079 15.0657 2.39212 15.1853 1.7049C15.2189 1.50321 15.3982 1.41357 15.5214 1.50321C16.6419 2.25393 17.3702 3.1279 17.796 4.11392Z" fill="#A1CE67"/>
<path id="&#60;Compound Path&#62;_3" fill-rule="evenodd" clip-rule="evenodd" d="M17.6391 11.2177L17.2581 10.8592C17.1237 10.7247 17.0228 10.5454 16.9668 10.3438C16.9444 10.2541 16.9257 10.1645 16.9108 10.0748L16.8771 9.96279L16.8884 9.83954C16.9108 8.59581 16.8211 7.60979 16.597 6.81426C16.2721 5.63775 15.667 4.86463 14.681 4.37162L14.2216 4.14752L14.2776 3.54246C14.3225 2.9262 14.4233 2.25392 14.5466 1.53681C14.6026 1.20067 14.7931 0.909343 15.0508 0.763681C15.2973 0.618019 15.5998 0.629224 15.8351 0.797296C17.034 1.60404 17.8632 2.56765 18.3674 3.73294C18.7035 4.51728 18.8828 5.35764 18.9164 6.32125L18.9724 6.60136L18.8492 6.80305C18.6139 7.64341 18.4906 8.64063 18.4682 9.82834L18.457 10.0748L18.401 10.1645C18.3861 10.2168 18.3749 10.2653 18.3674 10.3101C18.3002 10.5454 18.1881 10.7471 18.0312 10.8816L17.6391 11.2177ZM15.6334 3.13909C16.4514 3.65451 17.0564 4.37162 17.4822 5.30161C17.415 5.01776 17.3253 4.74511 17.2133 4.48366C16.9108 3.76656 16.4065 3.13909 15.7119 2.56765C15.682 2.76186 15.6558 2.95235 15.6334 3.13909Z" fill="#231F20"/>
</g>
<g id="&#60;Group&#62;_5">
<path id="&#60;Path&#62;_4" d="M17.2133 6.55654C17.1461 7.62099 17.2693 8.71906 17.5382 9.86194C17.5382 9.91423 17.5345 9.97026 17.527 10.03C17.527 10.1309 17.4934 10.2093 17.4374 10.2541C17.3702 10.3101 17.2917 10.3325 17.2133 10.3213C14.6922 9.96279 13.3253 8.15882 13.0339 3.44161C13.0227 3.23993 13.1684 3.08306 13.3253 3.11667C13.9303 3.22872 14.4681 3.39679 14.9275 3.62089C16.1489 4.23715 16.8548 5.23437 17.2133 6.55654Z" fill="#A1CE67"/>
<path id="&#60;Compound Path&#62;_4" fill-rule="evenodd" clip-rule="evenodd" d="M17.2581 11.1281C17.2207 11.1281 17.1834 11.1244 17.146 11.1169C14.1543 10.7023 12.6865 8.34931 12.384 3.50885C12.3616 3.17271 12.4624 2.84777 12.6641 2.61247C12.8658 2.37717 13.1459 2.26512 13.4148 2.32115C14.0647 2.43319 14.6586 2.62367 15.1628 2.88138C16.5073 3.54247 17.3813 4.66294 17.8295 6.29884L17.8743 6.45571L17.8631 6.62378C17.8071 7.52016 17.9079 8.50618 18.1657 9.64906L18.1881 9.76111V10.0412C18.1769 10.3998 18.0424 10.7135 17.8071 10.9152C17.6502 11.0497 17.4598 11.1281 17.2581 11.1281ZM13.7286 4.02427C14.0647 7.81148 15.1852 9.0328 16.7763 9.42497C16.5858 8.42774 16.5186 7.52016 16.5522 6.6686C16.2272 5.57053 15.6222 4.84222 14.681 4.37162C14.3971 4.22969 14.0796 4.11391 13.7286 4.02427Z" fill="#231F20"/>
</g>
</g>
<path id="&#60;Path&#62;_5" d="M23.0174 15.666L22.6252 19.4308H12.8659L12.4177 15.666C12.4177 13.1674 13.8967 11.0945 15.8351 10.6911C16.0667 10.6388 16.3057 10.6127 16.5522 10.6127H18.8828C18.9575 10.6127 19.0359 10.6164 19.1181 10.6239C21.2918 10.7695 23.0174 12.9657 23.0174 15.666Z" fill="#F3792A" stroke="#231F20" stroke-linecap="round"/>
<path id="&#60;Path&#62;_6" d="M22.1769 17.3019H10.2551" stroke="#231F20" stroke-linecap="round"/>
<path id="&#60;Path&#62;_7" d="M11.0843 43.79L6.96094 45.7844L1 33.392L5.12335 31.4087L11.0843 43.79Z" fill="#FFF218" stroke="#231F20" stroke-linecap="round"/>
<g id="&#60;Group&#62;_6">
<path id="&#60;Path&#62;_8" d="M29.9084 18.3328C29.8561 19.2441 29.7627 20.0844 29.6283 20.8538C27.2865 21.302 25.6842 22.3889 24.5637 23.9688C24.7878 22.8819 24.7878 21.795 24.5077 20.6746C25.6058 19.5429 27.1856 18.6353 29.393 17.9742C29.6507 17.8958 29.9196 18.0638 29.9084 18.3328Z" fill="#A2CE66" stroke="#231F20"/>
<path id="&#60;Path&#62;_9" d="M32.9784 21.1339C30.6814 27.0725 27.6337 29.0221 23.1406 28.798C22.995 28.7868 22.8717 28.742 22.7821 28.6523C22.7037 28.5739 22.67 28.4619 22.7037 28.3274C22.7261 28.2378 22.7485 28.1519 22.7709 28.0697C23.6449 26.6803 24.2723 25.3357 24.5636 23.9799V23.9687C25.6841 22.3889 27.2864 21.302 29.6282 20.8538C30.5134 20.6857 31.4882 20.6073 32.5975 20.6297C32.8664 20.6409 33.0681 20.8762 32.9784 21.1339Z" fill="#A2CE66" stroke="#231F20"/>
<path id="&#60;Path&#62;_10" d="M24.5076 20.6746C24.7877 21.795 24.7877 22.8819 24.5636 23.9688V23.98C23.7569 25.1116 23.1966 26.4898 22.7709 28.0697C22.7036 28.1668 22.6401 28.2639 22.5804 28.361C22.5244 28.4395 22.4571 28.4843 22.3787 28.5067C22.3413 28.4619 22.3227 28.4021 22.3227 28.3274C22.3152 28.2079 22.3077 28.0884 22.3003 27.9689C22.726 26.3778 22.9389 24.8763 22.8045 23.4869C22.6252 21.5485 21.7848 19.8006 19.9697 18.2431C20.2386 17.5111 20.5785 16.7379 20.9893 15.9237C21.1013 15.6772 21.4263 15.666 21.6056 15.8677C23.2078 17.5484 24.1266 19.1395 24.5076 20.6746Z" fill="#A2CE66" stroke="#231F20"/>
<path id="&#60;Path&#62;_11" d="M22.8045 23.4869C22.3563 24.8203 22.2331 26.3218 22.3003 27.9689C22.2853 28.0361 22.2667 28.107 22.2443 28.1817C22.2106 28.305 22.121 28.3834 22.009 28.417C21.8969 28.4507 21.7625 28.4282 21.628 28.361C17.6279 26.3105 15.9472 23.106 16.9332 16.8089C16.978 16.5512 17.2805 16.4391 17.5046 16.5624C18.4795 17.1002 19.2862 17.6605 19.9697 18.2431C21.7849 19.8006 22.6252 21.5485 22.8045 23.4869Z" fill="#A2CE66" stroke="#231F20"/>
</g>
<g id="&#60;Group&#62;_7">
<path id="&#60;Path&#62;_12" d="M17.8632 21.8287C18.3786 25.6607 15.6783 29.1902 11.8463 29.7056C8.00302 30.2098 4.48472 27.5207 3.9693 23.6887C3.81244 22.5346 3.9581 21.4029 4.32786 20.3833C7.26351 20.0695 9.04506 18.5121 9.79578 15.8341C9.86301 15.8266 9.92651 15.8192 9.98626 15.8117C10.0087 15.8117 10.0311 15.808 10.0535 15.8005C10.061 15.8154 10.0722 15.8266 10.0871 15.8341C12.0255 17.3243 13.9752 18.0751 15.936 17.8622C16.9444 18.9042 17.6503 20.2712 17.8632 21.8287Z" fill="#EE3D3D" stroke="#231F20" stroke-linecap="round"/>
<g id="&#60;Group&#62;_8">
<path id="&#60;Path&#62;_13" d="M9.84051 15.7109C9.82557 15.7557 9.81063 15.7968 9.79569 15.8341C9.04497 18.512 7.26341 20.0695 4.32777 20.3832C4.10367 20.4057 3.87584 20.4206 3.64428 20.4281C3.48741 20.4393 3.36416 20.2712 3.42018 20.1143C4.01403 18.3776 5.19053 17.1451 6.83763 16.3271C7.56594 15.9686 8.3951 15.6884 9.29148 15.4756C9.39232 15.5204 9.50437 15.5428 9.61641 15.5316C9.61641 15.5316 9.62389 15.5316 9.63883 15.5316L9.79569 15.5092C9.84051 15.5652 9.85171 15.6324 9.84051 15.7109Z" fill="#A1CE67" stroke="#231F20" stroke-linecap="round"/>
<path id="&#60;Path&#62;_14" d="M9.29148 15.4756C8.3951 15.6885 7.56595 15.9686 6.83764 16.3271C5.26897 16.3831 3.72271 15.7445 2.21007 14.3439C2.08682 14.2318 2.10923 14.0414 2.26609 13.9629C4.38379 12.9097 6.59113 13.145 8.8545 14.3215L8.94413 15.005C8.97775 15.2179 9.11221 15.3859 9.29148 15.4756Z" fill="#A1CE67" stroke="#231F20" stroke-linecap="round"/>
<path id="&#60;Path&#62;_15" d="M17.6614 17.4252C17.0863 17.6568 16.5111 17.8024 15.9359 17.8622C13.9751 18.0751 12.0254 17.3244 10.087 15.8341C10.0721 15.8266 10.0609 15.8154 10.0534 15.8005C9.96377 15.6997 9.98618 15.5428 10.087 15.4644L10.5464 15.4083C10.7481 15.3747 10.9162 15.2515 11.0058 15.0834C13.426 14.2318 15.6782 14.8369 17.7399 17.0442C17.8631 17.1675 17.8183 17.3692 17.6614 17.4252Z" fill="#A1CE67" stroke="#231F20" stroke-linecap="round"/>
<path id="&#60;Path&#62;_16" d="M10.5689 10.96L11.0619 14.7248C11.0843 14.8481 11.0619 14.9713 11.0059 15.0834C10.7146 15.1805 10.4232 15.3 10.1319 15.4419C10.117 15.4494 10.102 15.4569 10.0871 15.4644L9.79576 15.5092C9.78082 15.4868 9.76588 15.4681 9.75094 15.4532C9.69492 15.4195 9.63889 15.3971 9.56046 15.4195C9.47082 15.4345 9.38118 15.4532 9.29155 15.4756C9.11227 15.3859 8.97781 15.2179 8.9442 15.005L8.43998 11.2514C8.39516 10.9152 8.63047 10.6015 8.96661 10.5567L9.87419 10.4446C10.2103 10.3998 10.5241 10.6239 10.5689 10.96Z" fill="#A1CE67" stroke="#231F20" stroke-linecap="round"/>
</g>
</g>
<g id="&#60;Path&#62;_17">
<path d="M22.39 36.5853C22.9054 34.9158 23.2975 33.2911 20.9109 32.9102H5.70605L10.3896 42.3334H23.1743C30.0988 36.1633 32.6348 32.3275 30.7823 30.8261C28.9671 29.7504 25.9979 33.4928 23.1743 36.5853H17.0229" fill="white"/>
<path d="M22.39 36.5853C22.9054 34.9158 23.2975 33.2911 20.9109 32.9102H5.70605L10.3896 42.3334H23.1743C30.0988 36.1633 32.6348 32.3275 30.7823 30.8261C28.9671 29.7504 25.9979 33.4928 23.1743 36.5853H17.0229" stroke="#231F20" stroke-linecap="round"/>
</g>
</g>
</svg>
