<svg width="57" height="57" viewBox="0 0 57 57" fill="none" xmlns="http://www.w3.org/2000/svg">
<circle cx="28.5" cy="28.5" r="28.5" fill="#FBD980"/>
<path d="M31.5075 6.98778C31.5971 7.64512 31.6569 8.26139 31.6867 8.83656C30.4318 9.78897 29.6811 10.9991 29.2665 12.4221C29.2441 11.5929 29.0984 10.8198 28.7959 10.1139C29.2553 9.01584 30.0172 7.94018 31.1713 6.87573C31.3058 6.75248 31.4738 6.7973 31.5075 6.98778Z" fill="#A1CE67"/>
<path fill-rule="evenodd" clip-rule="evenodd" d="M28.7175 16.6575L28.6167 12.4557C28.5943 11.705 28.4598 11.0663 28.2133 10.4837L28.0565 10.1139L28.2133 9.74415C28.74 8.48921 29.5803 7.34633 30.7792 6.22585C31.0257 6.00176 31.3507 5.93453 31.6308 6.06899C31.8997 6.20344 32.0902 6.49477 32.1462 6.85332C32.247 7.5256 32.3031 8.18669 32.3367 8.79174L32.3591 9.27355L32.0341 9.52005C30.9697 10.3268 30.275 11.3688 29.8828 12.7022L28.7175 16.6575ZM29.5243 10.1363C29.5243 10.1438 29.5243 10.1475 29.5243 10.1475C29.9277 9.49764 30.4095 8.9262 31.0033 8.43319C30.9958 8.32114 30.9846 8.2091 30.9697 8.09705C30.3422 8.75813 29.8716 9.44162 29.5243 10.1363Z" fill="#231F20"/>
<path d="M33.5916 8.13066C33.1098 12.9487 31.6643 15.156 29.1209 16.2205C29.0312 16.2541 28.9528 16.2541 28.8968 16.2205C28.8407 16.1757 28.8071 16.1085 28.8071 16.0076C28.8071 15.9404 28.8071 15.8732 28.8071 15.8059C29.1209 14.5958 29.2889 13.4641 29.2665 12.4333V12.4221C29.6811 10.9991 30.4318 9.78896 31.6868 8.83656C32.1574 8.48921 32.6952 8.16427 33.3226 7.87295C33.4683 7.80572 33.614 7.91777 33.5916 8.13066Z" fill="#A1CE67"/>
<path fill-rule="evenodd" clip-rule="evenodd" d="M28.9976 17.0497C28.8631 17.0497 28.7287 17.0048 28.6054 16.9264C28.3253 16.7583 28.146 16.3998 28.1572 15.9964L28.1684 15.537L28.2245 15.4362C28.4934 14.3157 28.6278 13.3521 28.6166 12.5229L28.583 12.3773L28.6054 12.2988V12.1756L28.6839 12.0411C29.1881 10.4052 30.0508 9.13909 31.3394 8.15307C31.8548 7.77211 32.4375 7.42476 33.0873 7.12223C33.3787 6.98778 33.7036 7.0438 33.9389 7.2791C34.163 7.50319 34.2862 7.86175 34.2414 8.2203C33.7484 13.128 32.2806 15.7387 29.3225 16.9824C29.218 17.0272 29.1096 17.0497 28.9976 17.0497ZM29.9164 12.6798C29.9164 13.4193 29.8267 14.2149 29.6475 15.0888C31.4178 14.0468 32.3926 12.198 32.8296 8.99343C32.5458 9.15777 32.2806 9.33331 32.0341 9.52005C31.0369 10.282 30.3534 11.2568 29.95 12.4781L29.9724 12.6014L29.9164 12.6798Z" fill="#231F20"/>
<path d="M28.796 10.1139C29.0985 10.8198 29.2442 11.593 29.2666 12.4221V12.4333C28.964 13.4417 28.8408 14.5734 28.8072 15.8059C28.7848 15.8881 28.7624 15.974 28.7399 16.0637C28.725 16.1384 28.6951 16.1906 28.6503 16.2205C28.6279 16.1981 28.6092 16.1608 28.5943 16.1085C28.5719 16.0263 28.5532 15.9441 28.5383 15.862C28.5607 14.6182 28.4822 13.509 28.2133 12.5566C27.8548 11.2344 27.1489 10.2372 25.9276 9.62091C25.9798 9.03079 26.0657 8.39212 26.1853 7.7049C26.2189 7.50321 26.3982 7.41357 26.5214 7.50321C27.6419 8.25393 28.3702 9.1279 28.796 10.1139Z" fill="#A1CE67"/>
<path fill-rule="evenodd" clip-rule="evenodd" d="M28.6391 17.2177L28.2581 16.8592C28.1237 16.7247 28.0228 16.5454 27.9668 16.3438C27.9444 16.2541 27.9257 16.1645 27.9108 16.0748L27.8771 15.9628L27.8884 15.8395C27.9108 14.5958 27.8211 13.6098 27.597 12.8143C27.2721 11.6378 26.667 10.8646 25.681 10.3716L25.2216 10.1475L25.2776 9.54246C25.3225 8.9262 25.4233 8.25392 25.5466 7.53681C25.6026 7.20067 25.7931 6.90934 26.0508 6.76368C26.2973 6.61802 26.5998 6.62922 26.8351 6.7973C28.034 7.60404 28.8632 8.56765 29.3674 9.73294C29.7035 10.5173 29.8828 11.3576 29.9164 12.3212L29.9724 12.6014L29.8492 12.8031C29.6139 13.6434 29.4906 14.6406 29.4682 15.8283L29.457 16.0748L29.401 16.1645C29.3861 16.2168 29.3749 16.2653 29.3674 16.3101C29.3002 16.5454 29.1881 16.7471 29.0312 16.8816L28.6391 17.2177ZM26.6334 9.13909C27.4514 9.65451 28.0564 10.3716 28.4822 11.3016C28.415 11.0178 28.3253 10.7451 28.2133 10.4837C27.9108 9.76656 27.4065 9.13909 26.7119 8.56765C26.682 8.76186 26.6558 8.95235 26.6334 9.13909Z" fill="#231F20"/>
<path d="M28.2133 12.5565C28.1461 13.621 28.2693 14.7191 28.5382 15.8619C28.5382 15.9142 28.5345 15.9703 28.527 16.03C28.527 16.1309 28.4934 16.2093 28.4374 16.2541C28.3702 16.3101 28.2917 16.3325 28.2133 16.3213C25.6922 15.9628 24.3253 14.1588 24.0339 9.44161C24.0227 9.23993 24.1684 9.08306 24.3253 9.11667C24.9303 9.22872 25.4681 9.39679 25.9275 9.62089C27.1489 10.2371 27.8548 11.2344 28.2133 12.5565Z" fill="#A1CE67"/>
<path fill-rule="evenodd" clip-rule="evenodd" d="M28.2581 17.1281C28.2207 17.1281 28.1834 17.1244 28.146 17.1169C25.1543 16.7023 23.6865 14.3493 23.384 9.50885C23.3616 9.17271 23.4624 8.84777 23.6641 8.61247C23.8658 8.37717 24.1459 8.26512 24.4148 8.32115C25.0647 8.43319 25.6586 8.62367 26.1628 8.88138C27.5073 9.54247 28.3813 10.6629 28.8295 12.2988L28.8743 12.4557L28.8631 12.6238C28.8071 13.5202 28.9079 14.5062 29.1657 15.6491L29.1881 15.7611V16.0412C29.1769 16.3998 29.0424 16.7135 28.8071 16.9152C28.6502 17.0497 28.4598 17.1281 28.2581 17.1281ZM24.7286 10.0243C25.0647 13.8115 26.1852 15.0328 27.7763 15.425C27.5858 14.4277 27.5186 13.5202 27.5522 12.6686C27.2272 11.5705 26.6222 10.8422 25.681 10.3716C25.3971 10.2297 25.0796 10.1139 24.7286 10.0243Z" fill="#231F20"/>
<path d="M34.0174 21.666L33.6252 25.4308H23.8659L23.4177 21.666C23.4177 19.1674 24.8967 17.0945 26.8351 16.6911C27.0667 16.6388 27.3057 16.6127 27.5522 16.6127H29.8828C29.9575 16.6127 30.0359 16.6164 30.1181 16.6239C32.2918 16.7695 34.0174 18.9657 34.0174 21.666Z" fill="#F3792A" stroke="#231F20" stroke-linecap="round"/>
<path d="M33.1769 23.3019H21.2551" stroke="#231F20" stroke-linecap="round"/>
<path d="M22.0843 49.79L17.9609 51.7844L12 39.392L16.1234 37.4087L22.0843 49.79Z" fill="#FFF218" stroke="#231F20" stroke-linecap="round"/>
<path d="M40.9084 24.3328C40.8561 25.2441 40.7627 26.0844 40.6283 26.8538C38.2865 27.302 36.6842 28.3889 35.5637 29.9688C35.7878 28.8819 35.7878 27.795 35.5077 26.6746C36.6058 25.5429 38.1856 24.6353 40.393 23.9742C40.6507 23.8958 40.9196 24.0638 40.9084 24.3328Z" fill="#A2CE66" stroke="#231F20"/>
<path d="M43.9784 27.1339C41.6814 33.0725 38.6337 35.0221 34.1406 34.798C33.995 34.7868 33.8717 34.742 33.7821 34.6523C33.7037 34.5739 33.67 34.4619 33.7037 34.3274C33.7261 34.2378 33.7485 34.1519 33.7709 34.0697C34.6449 32.6803 35.2723 31.3357 35.5636 29.9799V29.9687C36.6841 28.3889 38.2864 27.302 40.6282 26.8538C41.5134 26.6857 42.4882 26.6073 43.5975 26.6297C43.8664 26.6409 44.0681 26.8762 43.9784 27.1339Z" fill="#A2CE66" stroke="#231F20"/>
<path d="M35.5076 26.6746C35.7877 27.795 35.7877 28.8819 35.5636 29.9688V29.98C34.7569 31.1116 34.1966 32.4898 33.7709 34.0697C33.7036 34.1668 33.6401 34.2639 33.5804 34.361C33.5244 34.4395 33.4571 34.4843 33.3787 34.5067C33.3413 34.4619 33.3227 34.4021 33.3227 34.3274C33.3152 34.2079 33.3077 34.0884 33.3003 33.9689C33.726 32.3778 33.9389 30.8763 33.8045 29.4869C33.6252 27.5485 32.7848 25.8006 30.9697 24.2431C31.2386 23.5111 31.5785 22.7379 31.9893 21.9237C32.1013 21.6772 32.4263 21.666 32.6056 21.8677C34.2078 23.5484 35.1266 25.1395 35.5076 26.6746Z" fill="#A2CE66" stroke="#231F20"/>
<path d="M33.8045 29.4869C33.3563 30.8203 33.2331 32.3218 33.3003 33.9689C33.2853 34.0361 33.2667 34.107 33.2443 34.1817C33.2106 34.305 33.121 34.3834 33.009 34.417C32.8969 34.4507 32.7625 34.4282 32.628 34.361C28.6279 32.3105 26.9472 29.106 27.9332 22.8089C27.978 22.5512 28.2805 22.4391 28.5046 22.5624C29.4795 23.1002 30.2862 23.6605 30.9697 24.2431C32.7849 25.8006 33.6252 27.5485 33.8045 29.4869Z" fill="#A2CE66" stroke="#231F20"/>
<path d="M28.8632 27.8287C29.3786 31.6607 26.6783 35.1902 22.8463 35.7056C19.003 36.2098 15.4847 33.5207 14.9693 29.6887C14.8124 28.5346 14.9581 27.4029 15.3279 26.3833C18.2635 26.0695 20.0451 24.5121 20.7958 21.8341C20.863 21.8266 20.9265 21.8192 20.9863 21.8117C21.0087 21.8117 21.0311 21.808 21.0535 21.8005C21.061 21.8154 21.0722 21.8266 21.0871 21.8341C23.0255 23.3243 24.9752 24.0751 26.936 23.8622C27.9444 24.9042 28.6503 26.2712 28.8632 27.8287Z" fill="#EE3D3D" stroke="#231F20" stroke-linecap="round"/>
<path d="M20.8405 21.7109C20.8256 21.7557 20.8106 21.7968 20.7957 21.8341C20.045 24.512 18.2634 26.0695 15.3278 26.3832C15.1037 26.4057 14.8758 26.4206 14.6443 26.4281C14.4874 26.4393 14.3642 26.2712 14.4202 26.1143C15.014 24.3776 16.1905 23.1451 17.8376 22.3271C18.5659 21.9686 19.3951 21.6884 20.2915 21.4756C20.3923 21.5204 20.5044 21.5428 20.6164 21.5316C20.6164 21.5316 20.6239 21.5316 20.6388 21.5316L20.7957 21.5092C20.8405 21.5652 20.8517 21.6324 20.8405 21.7109Z" fill="#A1CE67" stroke="#231F20" stroke-linecap="round"/>
<path d="M20.2915 21.4756C19.3951 21.6885 18.5659 21.9686 17.8376 22.3271C16.269 22.3831 14.7227 21.7445 13.2101 20.3439C13.0868 20.2318 13.1092 20.0414 13.2661 19.9629C15.3838 18.9097 17.5911 19.145 19.8545 20.3215L19.9441 21.005C19.9777 21.2179 20.1122 21.3859 20.2915 21.4756Z" fill="#A1CE67" stroke="#231F20" stroke-linecap="round"/>
<path d="M28.6614 23.4252C28.0863 23.6568 27.5111 23.8024 26.9359 23.8622C24.9751 24.0751 23.0254 23.3244 21.087 21.8341C21.0721 21.8266 21.0609 21.8154 21.0534 21.8005C20.9638 21.6997 20.9862 21.5428 21.087 21.4644L21.5464 21.4083C21.7481 21.3747 21.9162 21.2515 22.0058 21.0834C24.426 20.2318 26.6782 20.8369 28.7399 23.0442C28.8631 23.1675 28.8183 23.3692 28.6614 23.4252Z" fill="#A1CE67" stroke="#231F20" stroke-linecap="round"/>
<path d="M21.5689 16.96L22.0619 20.7248C22.0843 20.8481 22.0619 20.9713 22.0059 21.0834C21.7146 21.1805 21.4232 21.3 21.1319 21.4419C21.117 21.4494 21.102 21.4569 21.0871 21.4644L20.7958 21.5092C20.7808 21.4868 20.7659 21.4681 20.7509 21.4532C20.6949 21.4195 20.6389 21.3971 20.5605 21.4195C20.4708 21.4345 20.3812 21.4532 20.2915 21.4756C20.1123 21.3859 19.9778 21.2179 19.9442 21.005L19.44 17.2514C19.3952 16.9152 19.6305 16.6015 19.9666 16.5567L20.8742 16.4446C21.2103 16.3998 21.5241 16.6239 21.5689 16.96Z" fill="#A1CE67" stroke="#231F20" stroke-linecap="round"/>
<path d="M33.39 42.5853C33.9054 40.9158 34.2975 39.2911 31.9109 38.9102H16.7061L21.3896 48.3334H34.1743C41.0988 42.1633 43.6348 38.3275 41.7823 36.8261C39.9671 35.7504 36.9979 39.4928 34.1743 42.5853H28.0229" fill="white"/>
<path d="M33.39 42.5853C33.9054 40.9158 34.2975 39.2911 31.9109 38.9102H16.7061L21.3896 48.3334H34.1743C41.0988 42.1633 43.6348 38.3275 41.7823 36.8261C39.9671 35.7504 36.9979 39.4928 34.1743 42.5853H28.0229" stroke="#231F20" stroke-linecap="round"/>
</svg>
